<?xml version="1.0" standalone="no"?>
<!DOCTYPE svg PUBLIC "-//W3C//DTD SVG 20010904//EN"
 "http://www.w3.org/TR/2001/REC-SVG-20010904/DTD/svg10.dtd">
<svg version="1.0" xmlns="http://www.w3.org/2000/svg"
 width="1563.000000pt" height="1563.000000pt" viewBox="0 0 1563.000000 1563.000000"
 preserveAspectRatio="xMidYMid meet">
<metadata>
Created by potrace 1.16, written by Peter Selinger 2001-2019
</metadata>
<g transform="translate(0.000000,1563.000000) scale(0.100000,-0.100000)"
fill="#000000" stroke="none">
<path d="M7315 15560 c-1089 -69 -2240 -400 -3189 -917 -1528 -831 -2722
-2128 -3418 -3713 -364 -830 -578 -1718 -638 -2645 -13 -206 -13 -750 0 -947
110 -1641 689 -3127 1715 -4408 312 -389 757 -833 1170 -1166 319 -258 722
-527 1115 -746 818 -456 1808 -779 2747 -897 424 -54 463 -56 998 -56 535 0
574 2 998 56 938 118 1934 443 2747 897 674 377 1212 782 1750 1321 1163 1164
1925 2671 2174 4301 67 438 81 641 81 1185 -1 478 -9 628 -51 955 -156 1215
-578 2343 -1255 3357 -483 723 -1082 1355 -1784 1883 -1066 801 -2305 1306
-3655 1490 -315 42 -468 52 -920 55 -250 2 -513 0 -585 -5z m-4054 -4007 c1
-36 0 -226 -1 -305 0 -5 -35 -8 -77 -8 -43 0 -119 -7 -169 -15 -222 -36 -344
-105 -409 -234 -33 -66 -29 -151 34 -766 34 -324 61 -627 61 -672 0 -306 -146
-499 -433 -573 -65 -16 -69 -19 -42 -25 189 -43 335 -130 398 -238 60 -102 71
-157 71 -347 0 -142 -11 -277 -58 -715 -73 -684 -72 -710 32 -814 55 -55 132
-94 237 -121 77 -20 234 -40 310 -40 l45 0 0 -182 0 -181 -122 7 c-554 29
-878 213 -964 547 -28 106 -21 251 41 824 76 711 73 780 -37 901 -99 107 -250
156 -545 176 l-183 12 0 181 0 182 168 6 c285 11 467 68 566 178 104 115 106
192 31 899 -75 701 -75 780 2 938 66 135 160 225 308 297 171 82 403 130 643
134 l92 1 1 -47z m9492 17 c353 -60 574 -202 675 -432 60 -138 59 -242 -13
-913 -63 -591 -66 -675 -25 -780 72 -186 328 -295 698 -295 l92 0 0 -183 0
-183 -168 -12 c-201 -15 -309 -39 -419 -93 -96 -48 -162 -112 -200 -197 -45
-97 -43 -181 22 -787 76 -702 75 -773 -5 -940 -120 -249 -382 -384 -825 -425
-60 -5 -136 -10 -167 -10 l-58 0 0 179 0 178 113 7 c291 17 495 107 552 243
32 75 29 156 -34 765 -34 322 -61 630 -61 683 0 254 85 409 273 499 68 33 196
71 262 78 22 2 7 9 -60 26 -188 47 -338 147 -402 269 -80 150 -87 269 -44 683
73 701 91 887 91 936 0 223 -197 351 -575 373 l-110 6 -3 179 -2 179 137 -6
c76 -3 191 -15 256 -27z m-6852 -2099 l1214 -1550 3 1545 2 1544 345 0 345 0
0 -2145 0 -2145 -300 0 -299 0 -1198 1513 -1198 1514 -3 -1514 -2 -1513 -340
0 -340 0 0 2150 0 2150 278 0 278 0 1215 -1549z m3968 1538 c544 -39 953 -212
1292 -549 216 -214 357 -447 463 -763 91 -269 127 -504 127 -827 0 -215 -16
-388 -51 -560 -124 -610 -478 -1094 -990 -1354 -210 -107 -395 -166 -655 -209
-125 -20 -166 -21 -1027 -24 l-898 -4 0 2151 0 2150 798 0 c447 0 860 -5 941
-11z m-3889 -5225 c44 -9 96 -61 109 -110 33 -125 -89 -227 -215 -179 -122 46
-128 222 -10 276 44 20 66 22 116 13z m738 -797 l2 -717 -130 0 -130 0 0 704
0 705 53 6 c28 3 81 10 117 14 36 5 70 7 75 6 7 -1 11 -251 13 -718z m-1654
81 c99 -285 181 -516 183 -514 2 2 -1 39 -8 82 -6 45 -13 270 -16 517 l-5 437
116 0 116 0 0 -660 0 -660 -167 2 -168 3 -40 115 c-23 63 -106 300 -185 527
-80 226 -146 410 -147 409 -1 -1 5 -60 13 -131 9 -80 17 -283 21 -527 l6 -398
-122 0 -121 0 0 653 c0 360 3 657 7 661 4 3 81 5 172 4 l165 -3 180 -517z
m3766 497 c242 -48 386 -211 422 -474 l12 -91 30 61 c64 129 190 218 339 240
240 35 433 -88 501 -320 18 -62 32 -226 22 -265 l-6 -26 -329 0 -329 0 12 -52
c32 -136 109 -199 246 -199 82 0 138 13 210 52 41 22 56 26 61 17 4 -7 28 -40
53 -73 l45 -60 -22 -18 c-78 -63 -207 -107 -332 -114 -162 -8 -279 28 -381
121 -71 63 -143 207 -144 286 0 17 -11 0 -33 -51 -59 -134 -127 -209 -241
-264 -104 -50 -154 -58 -418 -62 l-248 -5 0 662 0 663 228 -6 c137 -4 257 -12
302 -22z m-920 -265 c272 -43 426 -323 365 -665 -46 -260 -236 -410 -498 -392
-244 16 -391 163 -427 428 -29 214 38 431 164 534 108 87 242 119 396 95z
m-1810 -435 l0 -415 135 0 135 0 0 -90 0 -90 -410 0 -410 0 0 90 0 90 145 0
145 0 0 320 0 319 -137 3 -138 3 -3 93 -3 92 271 0 270 0 0 -415z m1270 408
c0 -5 -81 -106 -181 -226 l-180 -218 201 -277 201 -277 -143 -3 c-78 -1 -147
-1 -153 2 -6 2 -95 126 -199 275 l-187 271 18 24 c10 14 92 117 183 230 l165
205 138 1 c75 0 137 -3 137 -7z m3154 -390 c60 -216 112 -390 115 -387 3 2 55
179 117 392 l111 387 133 3 c104 2 131 0 128 -10 -3 -7 -69 -200 -148 -428
-78 -228 -154 -450 -168 -492 l-27 -78 -151 0 -151 0 -26 73 c-70 197 -317
921 -317 929 0 5 61 7 137 6 l137 -3 110 -392z m-4789 -965 c3 -3 3 -12 0 -20
-5 -12 -19 -15 -68 -11 -81 6 -96 -5 -104 -80 l-6 -57 67 0 c59 0 66 -2 66
-20 0 -18 -7 -20 -65 -20 l-65 0 0 -150 c0 -143 -1 -150 -20 -150 -19 0 -20 7
-20 150 l0 150 -45 0 c-38 0 -45 3 -45 20 0 17 7 20 45 20 l45 0 0 54 c0 57
23 99 64 117 22 9 141 7 151 -3z m2385 -248 c0 -253 -1 -260 -20 -260 -14 0
-20 7 -20 21 l0 20 -30 -21 c-66 -47 -154 -29 -193 38 -24 41 -33 143 -18 199
6 23 27 58 45 78 30 32 38 35 88 35 32 0 62 -6 74 -15 10 -8 22 -15 27 -15 4
0 7 41 7 90 0 83 1 90 20 90 19 0 20 -7 20 -260z m1248 23 c2 -224 3 -233 23
-244 13 -6 39 -8 64 -5 33 5 44 3 48 -8 7 -19 2 -22 -45 -31 -21 -4 -52 -2
-72 5 -64 21 -66 30 -66 267 l0 213 -55 0 c-49 0 -55 2 -55 20 0 19 5 21 78
18 l77 -3 3 -232z m-4426 197 c20 -6 47 -19 59 -29 20 -16 21 -21 10 -34 -11
-15 -16 -14 -49 3 -47 26 -132 27 -160 3 -56 -47 -29 -105 63 -137 135 -47
175 -83 175 -156 0 -103 -116 -164 -241 -126 -30 9 -63 23 -74 31 -17 14 -18
17 -3 31 14 14 18 14 49 -5 25 -15 51 -21 97 -21 57 0 67 3 93 29 19 19 29 40
29 59 0 49 -32 77 -121 108 -104 36 -139 68 -139 129 0 94 97 147 212 115z
m956 -68 l3 -42 60 0 c52 0 59 -2 59 -20 0 -18 -7 -20 -60 -20 l-61 0 3 -137
3 -137 27 -15 c22 -13 35 -13 70 -4 32 9 45 9 50 0 13 -21 9 -26 -34 -37 -52
-15 -100 -6 -135 25 -28 23 -28 25 -31 164 l-4 141 -44 0 c-38 0 -45 3 -42 18
2 12 15 18 46 20 42 3 42 4 42 42 0 36 12 52 35 46 6 -1 11 -21 13 -44z m1211
-48 c2 -2 0 -28 -4 -59 -5 -45 -10 -55 -26 -55 -16 0 -19 7 -19 41 0 41 0 41
-32 35 -69 -14 -98 -71 -98 -196 l0 -90 35 0 c28 0 35 -4 35 -20 0 -19 -7 -20
-90 -20 -83 0 -90 1 -90 20 0 16 7 20 30 20 l30 0 0 145 0 145 -30 0 c-23 0
-30 4 -30 20 0 17 7 20 50 20 l50 0 0 -42 0 -41 33 37 c34 39 82 58 127 48 14
-3 27 -6 29 -8z m3796 2 c1 -1 -1 -27 -3 -58 -3 -49 -7 -58 -23 -58 -16 0 -19
7 -19 40 0 35 -3 40 -24 40 -33 0 -75 -37 -97 -84 -13 -29 -19 -65 -19 -123
l0 -83 40 0 c33 0 40 -3 40 -20 0 -19 -7 -20 -90 -20 -83 0 -90 1 -90 20 0 16
7 20 30 20 l30 0 0 145 0 145 -30 0 c-24 0 -30 4 -30 21 0 18 5 20 48 17 46
-3 47 -4 50 -40 l3 -36 32 35 c34 36 84 54 127 45 14 -3 25 -5 25 -6z m-5597
-16 c44 -27 65 -79 66 -165 2 -122 -51 -190 -149 -190 -99 0 -149 62 -150 185
0 88 22 142 69 171 42 26 121 25 164 -1z m826 -87 c9 -60 19 -129 22 -155 4
-27 10 -48 14 -48 3 0 19 59 35 130 l28 130 32 0 32 0 29 -135 c15 -74 30
-133 32 -131 3 3 51 290 52 309 0 4 12 7 26 7 19 0 24 -4 20 -17 -3 -10 -15
-72 -26 -138 -41 -228 -36 -217 -78 -213 l-37 3 -25 130 -24 130 -13 -60 c-8
-33 -21 -93 -29 -133 l-16 -73 -36 3 -36 3 -32 165 c-40 203 -40 200 -10 200
22 0 24 -6 40 -107z m536 92 c16 -8 34 -24 40 -34 5 -11 10 -72 10 -136 0 -92
4 -123 17 -146 26 -43 5 -58 -34 -25 -27 23 -32 24 -43 11 -7 -8 -30 -20 -51
-27 -147 -44 -224 149 -83 208 19 8 61 14 94 14 59 0 60 0 60 29 0 15 -10 41
-22 56 -20 26 -24 27 -96 23 -54 -2 -76 1 -79 10 -11 31 134 44 187 17z m714
-6 c38 -30 56 -71 59 -132 l2 -52 -122 -3 c-120 -3 -123 -3 -123 -25 0 -38 36
-85 74 -95 37 -11 97 -2 121 18 11 9 16 7 24 -9 10 -18 7 -23 -21 -38 -20 -10
-56 -17 -90 -17 -69 -1 -103 20 -136 85 -20 37 -23 55 -19 116 6 115 57 172
153 173 37 0 59 -6 78 -21z m1027 5 c39 -19 68 -84 69 -146 l0 -48 -125 0
c-79 0 -125 -4 -125 -10 0 -22 28 -76 48 -94 25 -22 86 -25 132 -6 23 9 34 10
42 2 17 -17 -5 -38 -57 -52 -80 -22 -153 10 -192 84 -24 46 -23 151 2 201 38
77 132 108 206 69z m207 -141 c30 -84 58 -151 62 -148 4 2 31 72 60 155 47
136 54 150 76 150 l23 0 -33 -92 c-101 -276 -99 -273 -130 -273 -27 0 -30 5
-92 174 -35 96 -64 179 -64 184 0 4 10 7 22 5 19 -3 30 -26 76 -155z m488 138
c40 -24 64 -77 64 -140 l0 -51 -124 0 -124 0 8 -35 c10 -44 26 -65 66 -81 31
-13 80 -8 120 14 16 9 22 7 32 -8 10 -17 8 -22 -21 -37 -47 -25 -138 -24 -173
3 -55 40 -69 70 -72 153 -5 92 18 149 71 181 41 26 112 26 153 1z m690 0 c46
-28 69 -83 69 -166 0 -123 -53 -190 -150 -190 -99 0 -149 62 -150 185 0 88 22
142 69 171 41 25 121 25 162 0z m170 -7 c4 -14 9 -22 13 -17 33 49 131 58 180
17 75 -63 67 -277 -13 -329 -40 -27 -95 -29 -138 -7 l-38 20 0 -83 c0 -74 -2
-83 -20 -88 -20 -5 -20 0 -20 254 0 222 2 259 15 259 8 0 18 -12 21 -26z m520
7 c40 -24 64 -77 64 -141 l0 -51 -122 2 -123 1 3 -28 c10 -87 94 -123 183 -78
22 11 27 10 37 -7 10 -16 8 -21 -21 -36 -47 -25 -138 -24 -173 3 -54 40 -68
70 -72 148 -7 130 47 206 148 206 26 0 58 -8 76 -19z"/>
<path d="M8810 8869 l0 -1550 528 4 c570 4 604 7 786 64 328 102 599 339 756
658 121 248 170 460 177 775 7 307 -26 522 -118 754 -79 198 -164 331 -304
472 -202 204 -473 330 -783 363 -60 6 -300 11 -572 11 l-470 0 0 -1551z"/>
<path d="M8570 4931 l0 -461 80 0 c143 0 231 53 284 170 37 83 49 173 43 334
-6 188 -27 258 -100 330 -60 60 -95 73 -220 82 l-87 7 0 -462z"/>
<path d="M9607 5099 c-20 -11 -48 -36 -62 -57 -22 -33 -55 -135 -55 -169 0
-10 45 -13 211 -13 l211 0 -6 28 c-3 15 -8 46 -11 69 -9 57 -55 126 -98 146
-49 23 -142 22 -190 -4z"/>
<path d="M7731 5093 c-18 -9 -46 -34 -61 -55 -42 -58 -55 -125 -54 -278 1
-159 21 -228 80 -279 42 -38 68 -45 144 -39 52 4 65 9 95 38 60 59 78 123 79
285 1 201 -33 295 -121 331 -44 19 -121 17 -162 -3z"/>
<path d="M7953 3738 c-40 -10 -63 -50 -70 -122 -15 -145 80 -224 169 -140 27
27 28 32 28 120 0 73 -4 96 -17 113 -23 28 -70 40 -110 29z"/>
<path d="M5162 3720 c-51 -48 -54 -197 -5 -252 38 -42 122 -29 149 24 35 68
26 187 -18 228 -29 27 -97 27 -126 0z"/>
<path d="M6566 3591 c-43 -9 -70 -51 -62 -95 8 -44 35 -60 88 -53 62 8 88 39
88 104 l0 53 -42 -1 c-24 -1 -56 -4 -72 -8z"/>
<path d="M7240 3713 c-16 -16 -33 -43 -36 -60 l-6 -33 102 0 103 0 -6 38 c-13
78 -98 108 -157 55z"/>
<path d="M8269 3711 c-16 -16 -29 -36 -29 -44 0 -9 -3 -22 -6 -31 -5 -14 7
-16 100 -16 66 0 106 4 106 10 0 21 -31 83 -48 96 -9 7 -34 14 -55 14 -29 0
-45 -7 -68 -29z"/>
<path d="M8974 3722 c-26 -21 -44 -54 -44 -81 0 -20 6 -21 100 -21 111 0 112
1 86 65 -8 18 -23 38 -34 44 -31 16 -84 13 -108 -7z"/>
<path d="M9650 3718 c-44 -48 -51 -184 -11 -238 39 -54 126 -47 157 12 34 67
26 186 -17 229 -28 28 -101 26 -129 -3z"/>
<path d="M10046 3739 c-16 -4 -39 -18 -52 -30 -22 -21 -24 -30 -24 -119 0 -90
2 -98 25 -120 35 -33 98 -32 133 4 24 23 27 36 30 105 6 124 -34 181 -112 160z"/>
<path d="M10361 3726 c-28 -16 -50 -52 -51 -83 0 -22 3 -23 100 -23 111 0 112
1 86 65 -23 53 -81 71 -135 41z"/>
</g>
</svg>
